<svg xmlns="http://www.w3.org/2000/svg" version="1.1" xmlns:xlink="http://www.w3.org/1999/xlink" xmlns:svgjs="http://svgjs.dev/svgjs" width="1500" height="1500" viewBox="0 0 1500 1500"><rect width="1500" height="1500" fill="#ffffff"></rect><g transform="matrix(0.6666666666666666,0,0,0.6666666666666666,249.39393939393938,626.658027055373)"><svg viewBox="0 0 396 98" data-background-color="#ffffff" preserveAspectRatio="xMidYMid meet" height="371" width="1500" xmlns="http://www.w3.org/2000/svg" xmlns:xlink="http://www.w3.org/1999/xlink"><g id="tight-bounds" transform="matrix(1,0,0,1,0.2400000000000091,-0.1286522294873862)"><svg viewBox="0 0 395.52 98.25730445897474" height="98.25730445897474" width="395.52"><g><svg viewBox="0 0 434.28691632607064 107.88800000000003" height="98.25730445897474" width="395.52"><g><svg viewBox="0 0 434.28691632607064 107.88800000000003" height="107.88800000000003" width="434.28691632607064"><g id="textblocktransform"><svg viewBox="0 0 434.28691632607064 107.88800000000003" height="107.88800000000003" width="434.28691632607064" id="textblock"><g><svg viewBox="0 0 434.28691632607064 107.88800000000003" height="107.88800000000003" width="434.28691632607064"><g><svg viewBox="0 0 434.28691632607064 107.88800000000003" height="107.88800000000003" width="434.28691632607064"><g><svg viewBox="0 0 434.28691632607064 138.78457915057916" height="138.78457915057916" width="434.28691632607064"><g transform="matrix(1,0,0,1,92.21204832696975,0)"><svg width="249.86281967213114" viewBox="0.85 -32.95 155.39000000000001 33.550000000000004" height="53.94400000000001" data-palette-color="#6b7280"><path d="M19.1-32.9Q24.5-32.9 28.45-31.4L28.45-31.4 26.3-22.55 25.5-22.55Q23-23.8 21.18-24.35 19.35-24.9 17.2-24.9L17.2-24.9Q14.9-24.9 13.68-24.15 12.45-23.4 11.9-21.5 11.35-19.6 11.35-16L11.35-16Q11.35-12.35 11.9-10.43 12.45-8.5 13.78-7.73 15.1-6.95 17.6-6.95L17.6-6.95Q18.3-6.95 19.4-7.15L19.4-7.15 19.4-8.75 19.25-14.2 28.4-14.85 28.25-10.45 28.25-1.6Q22.45 0.6 16.7 0.6L16.7 0.6Q8.85 0.6 4.85-3.58 0.85-7.75 0.85-15.5L0.85-15.5Q0.85-24 5.58-28.45 10.3-32.9 19.1-32.9L19.1-32.9ZM46.85-32.95Q53.9-32.95 57.75-28.78 61.6-24.6 61.6-17L61.6-17Q61.6-8.6 57.37-4 53.15 0.6 45.4 0.6L45.4 0.6Q38.35 0.6 34.5-3.63 30.65-7.85 30.65-15.6L30.65-15.6Q30.65-23.9 34.87-28.43 39.1-32.95 46.85-32.95L46.85-32.95ZM45.95-24.95Q44-24.95 43-24.28 42-23.6 41.57-21.9 41.15-20.2 41.15-16.95L41.15-16.95Q41.15-12.8 41.6-10.65 42.05-8.5 43.12-7.65 44.2-6.8 46.3-6.8L46.3-6.8Q48.25-6.8 49.25-7.48 50.25-8.15 50.67-9.88 51.1-11.6 51.1-14.85L51.1-14.85Q51.1-18.95 50.65-21.1 50.2-23.25 49.12-24.1 48.05-24.95 45.95-24.95L45.95-24.95ZM79.5-32.95Q86.55-32.95 90.4-28.78 94.25-24.6 94.25-17L94.25-17Q94.25-8.6 90.02-4 85.8 0.6 78.05 0.6L78.05 0.6Q71 0.6 67.14-3.63 63.3-7.85 63.3-15.6L63.3-15.6Q63.3-23.9 67.52-28.43 71.75-32.95 79.5-32.95L79.5-32.95ZM78.59-24.95Q76.64-24.95 75.64-24.28 74.64-23.6 74.22-21.9 73.8-20.2 73.8-16.95L73.8-16.95Q73.8-12.8 74.25-10.65 74.69-8.5 75.77-7.65 76.84-6.8 78.94-6.8L78.94-6.8Q80.89-6.8 81.9-7.48 82.9-8.15 83.32-9.88 83.75-11.6 83.75-14.85L83.75-14.85Q83.75-18.95 83.3-21.1 82.84-23.25 81.77-24.1 80.69-24.95 78.59-24.95L78.59-24.95ZM112.14-32.55Q119.29-32.55 123.12-28.68 126.94-24.8 126.94-17.5L126.94-17.5Q126.94-8.85 122.49-4.2 118.04 0.45 109.74 0.45L109.74 0.45Q104.54 0.45 97.54 0L97.54 0 98.04-9.5 97.54-32.35 112.14-32.55ZM111.64-7Q113.99-7 115.22-8.88 116.44-10.75 116.44-15.05L116.44-15.05Q116.44-18.7 115.94-20.8 115.44-22.9 114.34-23.83 113.24-24.75 111.29-24.75L111.29-24.75Q109.39-24.75 107.54-24.55L107.54-24.55 107.19-10.5 107.29-7.4Q110.29-7 111.64-7L111.64-7ZM144.74-10.4L144.64-8.5 145.04 0 135.04 0 135.54-8.5 135.49-10.05 125.14-32.35 135.64-32.35 136.44-29.65 140.09-19.9 140.69-19.9 144.89-29.3 146.04-32.35 156.24-32.35 144.74-10.4Z" opacity="1" transform="matrix(1,0,0,1,0,0)" fill="#6b7280" class="undefined-yy-0" data-fill-palette-color="primary"></path></svg></g><g><svg><g></g><g></g></svg></g><g><svg><g></g><g><svg></svg></g></svg></g><g transform="matrix(1,0,0,1,0,54.494000000000014)" id="text-0"><svg viewBox="0 0 434.28691632607064 53.394" height="53.394" width="434.28691632607064"><g><svg xmlns="http://www.w3.org/2000/svg" xmlns:xlink="http://www.w3.org/1999/xlink" version="1.1" x="0" y="0" viewBox="1.7199999999999953 19.4 96.46300181202601 52.6" enable-background="new 0 0 100 100" xml:space="preserve" height="53.394" width="97.91911632607066" class="icon-cg-0" data-fill-palette-color="accent" id="cg-0"><path fill="#97978d" d="M97.189 50.816c-0.159-0.04-0.306-0.053-0.45-0.026 0.092-2.015 0.132-4.255 0.132-6.734 0-5.09 0.397-11.148 0.9-16.756 0 0-23.674-0.199-40.006-7.9-1.232 7.211-33.656 12.912-36.307 13.362-0.014-0.013-0.04-0.013-0.053-0.013 0 0-0.438-0.04-1.193-0.04-8.935 0-18.492 4.918-18.492 18.545C1.72 71.059 20.411 72 20.649 72h44.116c25.94 0 33.418-0.902 33.418-19.845C98.184 51.545 97.771 50.976 97.189 50.816zM79.429 28.622c6.448 0 11.675 5.227 11.675 11.674 0 6.448-5.227 11.675-11.675 11.675-6.447 0-11.674-5.227-11.674-11.675C67.755 33.848 72.981 28.622 79.429 28.622zM93.357 63.848c-3.035 4.719-9.914 5.194-24.35 5.261C67.655 69.121 66.25 69 64.766 69H20.703c-0.04 0-0.146 0.121-0.292 0.108-2.281-0.159-16.04-1.836-16.04-17.968 0-14.29 11.082-15.811 15.841-15.811l5.555 24.766C25.899 60.691 26.43 61 27.052 61H65.72c12.605 0 23.741 0.145 29.693-5.158C95.188 59.275 94.577 61.965 93.357 63.848z" data-fill-palette-color="accent"></path><polygon fill="#97978d" points="78.988,31.113 81.688,36.582 87.723,37.458 83.356,41.715 84.387,47.726 78.988,44.888   73.59,47.726 74.621,41.715 70.254,37.458 76.289,36.582 " data-fill-palette-color="accent"></polygon></svg></g><g transform="matrix(1,0,0,1,110.52511632607066,0)"><svg width="323.7618" viewBox="0.1 -32.4 200.09 33" height="53.394" data-palette-color="#97978d"><path d="M22-32.35L30.85 0 20.7 0 19.8-5.35 19.75-5.5 14.85-5.6 10.75-5.4 9.9 0 0.1 0 9.9-32.35 22-32.35ZM15.45-12.75L18.25-12.8 16.05-23.4 15.45-23.4 12.65-12.8 15.45-12.75ZM49.7-32.4Q55.15-32.4 58.07-29.73 61-27.05 61-22.1L61-22.1Q61-18.25 59.2-15.33 57.4-12.4 54.1-10.78 50.8-9.15 46.5-9.15L46.5-9.15 44.05-9.15 44.4 0 34.35 0 34.85-9.5 34.35-32.35 49.7-32.4ZM47.9-16.15Q49.25-16.9 49.87-18.07 50.5-19.25 50.5-21.1L50.5-21.1Q50.5-23.3 49.45-24.33 48.4-25.35 46.15-25.45L46.15-25.45 44.35-25.3 44.15-16.35 47.9-16.15ZM79.34-32.4Q84.8-32.4 87.72-29.73 90.65-27.05 90.65-22.1L90.65-22.1Q90.65-18.25 88.84-15.33 87.05-12.4 83.75-10.78 80.45-9.15 76.15-9.15L76.15-9.15 73.7-9.15 74.05 0 64 0 64.5-9.5 64-32.35 79.34-32.4ZM77.55-16.15Q78.9-16.9 79.52-18.07 80.15-19.25 80.15-21.1L80.15-21.1Q80.15-23.3 79.09-24.33 78.05-25.35 75.8-25.45L75.8-25.45 74-25.3 73.8-16.35 77.55-16.15ZM109.64-32.35L118.49 0 108.34 0 107.44-5.35 107.39-5.5 102.49-5.6 98.39-5.4 97.54 0 87.74 0 97.54-32.35 109.64-32.35ZM103.09-12.75L105.89-12.8 103.69-23.4 103.09-23.4 100.29-12.8 103.09-12.75ZM143.29-12.75Q146.89-7.15 150.49-2.35L150.49-2.35 150.34-1.25Q145.24 0.3 140.29 0.6L140.29 0.6 139.34-0.2 138.74-1.45Q138.34-2.25 137.14-4.83 135.94-7.4 135.04-9.65L135.04-9.65 131.69-9.65 132.04 0 121.99 0 122.49-9.5 121.99-32.35 137.34-32.4Q142.79-32.4 145.74-29.83 148.69-27.25 148.69-22.4L148.69-22.4Q148.69-19.55 147.27-17.05 145.84-14.55 143.29-12.75L143.29-12.75ZM138.14-21.4Q138.14-23.4 137.12-24.38 136.09-25.35 133.79-25.45L133.79-25.45 131.99-25.3 131.79-16.95 135.44-16.75Q136.84-17.4 137.49-18.5 138.14-19.6 138.14-21.4L138.14-21.4ZM168.09-7.7L176.39-8 176.94-7.3 176.34 0 153.54 0 154.04-9.5 153.54-32.35 176.74-32.35 177.29-31.65 176.64-24.35 168.69-24.65 163.54-24.65 163.44-20.1 168.39-20.1 173.59-20.25 174.14-19.55 173.54-12.25 167.74-12.4 163.24-12.4 163.19-10.5 163.29-7.7 168.09-7.7ZM199.64-8.2L200.19-7.5 199.59 0 180.34 0 180.84-9.5 180.34-32.35 190.54-32.35 189.99-10.5 190.09-8.2 199.64-8.2Z" opacity="1" transform="matrix(1,0,0,1,0,0)" fill="#97978d" class="undefined-yy-1" data-fill-palette-color="secondary"></path></svg></g></svg></g></svg></g></svg></g></svg></g></svg></g></svg></g></svg></g><defs></defs></svg><rect width="395.52" height="98.25730445897474" fill="none" stroke="none" visibility="hidden"></rect></g></svg></g></svg>